<?xml version="1.0" encoding="UTF-8"?> <svg xmlns="http://www.w3.org/2000/svg" width="196" height="79" viewBox="0 0 196 79" fill="none"> <path fill-rule="evenodd" clip-rule="evenodd" d="M26.6231 60.0612C26.6231 60.0612 25.6428 61.8304 21.6795 71.3296L19.7034 75.9757H18.0353V77.9538H21.3838C24.906 77.9538 24.906 77.9538 24.906 77.9538V75.9757C24.532 75.9698 22.7039 76.029 22.3755 75.9757L22.9497 74.4468L23.6632 72.7291H30.6901L31.9198 75.9757H29.6297V77.9538H36.9459V75.9757H35.1081L34.7347 75.1167C34.2999 73.962 31.1262 65.7941 29.8165 62.4588L28.875 60.0612L26.6231 60.0612ZM44.5681 60.2666C41.4195 60.9814 39.534 63.5527 40.2791 66.1156C40.7653 67.7882 42.0491 68.853 45.0627 70.083C47.2925 70.9931 47.9803 71.3815 48.4474 71.9938C49.1555 72.9221 49.0328 74.5632 48.1967 75.3486C47.3141 76.178 45.3105 76.5614 43.5733 76.2336C42.2391 75.982 42.0639 75.772 41.7384 74.0363L41.4737 72.6236C41.1186 72.6723 39.5847 72.9096 39.5847 72.9096C39.5847 72.9096 39.5001 72.9986 39.5847 75.2372C39.6971 76.4558 39.7898 77.4917 39.7908 77.5394C39.7918 77.587 40.324 77.7481 40.9736 77.8972C42.6024 78.2714 46.3149 78.273 47.6654 77.9002C48.9743 77.5391 49.8709 77.013 50.6721 76.1364C52.3327 74.3196 52.3039 71.3807 50.6104 69.8198C49.7714 69.0464 49.0218 68.6347 46.6686 67.6548C44.2568 66.6504 43.6416 66.2725 43.3219 65.599C42.8595 64.6242 43.1714 63.3271 44.0311 62.6509C45.1891 61.7399 48.3249 61.6664 48.8656 62.5375C48.9731 62.7107 49.1373 63.2711 49.2304 63.7828C49.5188 65.3703 49.4814 65.2562 49.4814 65.2562L51.6058 65.0317C51.6058 65.0317 51.4004 61.8889 51.3112 61.2452C51.2303 60.6621 51.2001 60.6313 50.4841 60.4049C49.4551 60.0795 45.7714 59.9935 44.5681 60.2666ZM144.91 60.3356C143.491 60.7202 142.589 61.2107 141.875 61.9851C140.379 63.6088 140.218 65.9162 141.487 67.5792C142.073 68.3473 143.567 69.2532 145.662 70.1102C148.481 71.2638 149.261 71.896 149.401 73.1439C149.547 74.4329 148.822 75.5775 147.576 76.0272C146.154 76.5401 143.364 76.3752 142.727 75.7405C142.618 75.6319 142.41 74.9167 142.266 74.1514C142.121 73.3861 141.975 72.7328 141.942 72.6999C141.859 72.6172 140.201 72.8124 140.034 72.9245C139.88 73.0277 140.226 77.3849 140.402 77.562C140.642 77.8036 142.601 78.1164 144.357 78.1934C149.086 78.4006 151.784 76.8499 152.34 73.6054C152.661 71.73 151.812 70.0701 149.961 68.9577C149.522 68.6941 148.256 68.1042 147.146 67.6468C144.768 66.6665 144.218 66.3273 143.846 65.6136C143.501 64.9503 143.499 64.3096 143.841 63.5568C144.367 62.3997 145.676 61.8373 147.566 61.9565C149.062 62.051 149.388 62.2292 149.566 63.0508C149.645 63.4141 149.784 64.0582 149.876 64.4822L150.043 65.253L151.046 65.169C151.598 65.1228 152.063 65.0657 152.081 65.0422C152.173 64.9191 151.765 60.7567 151.65 60.6468C151.331 60.342 150.227 60.1757 148.15 60.119C146.274 60.0679 145.774 60.1012 144.91 60.3356ZM56.6833 61.2063V62.0651H59.1167C59.1167 65.8395 59.0244 76.1135 59.0244 76.1135H56.8264V77.9538H60.6002H64.556V77.1128C64.556 76.2855 64.556 76.1135 64.556 76.1135C64.556 76.1135 62.5457 76.0929 62.1226 76.0929V62.0651C62.1226 62.0651 64.252 62.0651 64.556 62.0651V61.2063V60.3475H56.6833V61.2063ZM70.1385 61.2063V62.0651H70.7647C71.1091 62.0651 72.2463 62.0651 72.2463 62.0651V69.132L72.2141 76.0214L71.1763 76.1423L70.1385 76.2633V77.1085V77.9538H76.711H83.2836L83.7838 75.8424C84.0591 74.6813 84.4279 73.0675 84.479 72.8186C84.2035 72.7675 82.7055 72.4384 82.5773 72.4026L81.8801 74.0067C81.5484 74.9107 81.1767 75.7338 81.0538 75.8358C80.8882 75.9736 80.1253 76.0214 78.0968 76.0214H75.3632L75.3259 69.133L75.2663 62.0651C75.5131 62.0158 77.4951 62.0651 77.9576 62.0651V60.3475H74.0928H70.1385V61.2063ZM87.3154 61.2063V62.0651L89.6057 62.0667V69.1694V76.0929C89.2219 76.0929 87.3154 76.0929 87.3154 76.0929V77.9538H95.0646V76.0929H92.577L92.6301 69.1652V62.0667H95.1166V60.3475H91.216H87.3154V61.2063ZM100.627 61.2063V62.2083H102.775V69.1674V76.0929H100.627V77.9538H107.278H113.929L114.073 77.417C114.312 76.5229 114.954 73.4805 114.91 73.4425C114.846 73.3861 113.373 73.087 113.16 73.087C113.049 73.087 112.746 73.658 112.445 74.4338C112.151 75.193 111.817 75.8261 111.679 75.8848C111.353 76.0237 105.781 76.0364 105.781 76.0364V69.7947H107.987C109.201 69.7947 110.294 69.8328 110.415 69.8795C110.563 69.936 110.668 70.2456 110.732 70.8099L110.827 71.6556H111.811H112.794V68.9359V66.2162H111.792H110.79V66.833C110.79 67.8785 110.734 67.9024 108.142 67.9571L105.852 68.0055L105.813 65.1069L105.775 62.2083L108.318 62.2104C111.414 62.213 111.484 62.2376 111.745 63.425C111.849 63.8973 111.968 64.4287 112.009 64.6059C112.091 64.9554 112.478 65.0126 113.557 64.8343L114.104 64.7439L114.017 63.154C113.969 62.2796 113.896 61.2903 113.854 60.9558L113.779 60.3475H107.203H100.627V61.2063ZM117.948 61.2063V62.0651L118.556 62.0671C119.754 62.071 119.681 61.9715 120.807 65.1192C121.975 68.3858 124.043 73.7798 125.07 76.2361L125.863 77.9639H128.529L128.804 77.4221C129.276 76.4929 131.726 70.7657 133.475 66.5025C134.173 64.8031 134.828 63.1495 135.131 62.4195C135.235 62.168 135.458 62.0307 135.73 62.0297L136.985 62.0251V61.1863V60.3475H129.971V61.1894V62.0312L132.507 62.0251L132.334 62.6128C131.916 64.2808 127.793 75.04 127.594 74.9822C127.456 74.9418 126.516 72.2341 124.525 66.1446L123.167 62.0312H126.108V60.3475H117.948V61.2063ZM157.025 60.3475L157.027 62.0651H159.172V69.1674V76.0929H157.025V77.9538H164.482V76.0929C164.285 76.0852 162.172 76.0929 162.172 76.0929L162.211 72.9796V69.7797H163.661C163.935 69.7797 164.198 69.8925 164.386 70.0917L164.959 70.6961C165.437 71.2001 166.408 72.5392 167.116 73.6716C167.825 74.8041 168.727 76.2147 169.12 76.8063L169.846 77.9602H175.068V76.0929L173.68 76.0703C172.771 76.0315 172.445 75.9588 172.204 75.741C172.034 75.5871 171.131 74.3312 170.198 72.95C169.031 71.2229 168.163 70.1112 167.418 69.3892L166.335 68.3397L169.265 65.293C172.361 62.0733 172.363 62.0719 173.665 62.0667C174.051 62.0651 174.059 62.0667 174.059 62.0667V60.3475H167.158V62.0163L169.265 62.0667L167.653 63.9515C165.427 66.5639 164.282 67.7597 163.848 67.9249C163.628 68.0086 163.162 68.0771 162.813 68.0771H162.178V65.1594C162.178 61.826 162.178 62.0651 164.325 62.0651V61.2063V60.3475C162.37 60.3475 157.077 60.2949 157.025 60.3475ZM177.78 60.4222V62.2315C177.78 62.2315 179.535 62.205 179.553 62.2315C179.571 62.2581 180.79 64.292 182.262 66.7511L184.937 71.2226V76.052L182.325 76.057V77.9538H190.545V76.052L187.943 76.057V71.2551L189.393 68.9146C190.191 67.6273 191.378 65.7045 192.031 64.6417C193.64 62.0226 193.47 62.3129 194.317 62.2315C195.008 62.1651 195.148 62.2315 195.148 62.2315V60.419H188.587V62.2315L190.792 62.2454L190.425 62.9782C190.223 63.3815 189.38 64.9564 188.552 66.4783C187.331 68.7222 186.921 69.1038 186.921 69.1038C186.921 69.1038 184.342 64.5929 183.586 63.0887C183.374 62.6675 183.171 62.2315 183.171 62.2315H185.51V60.3475C183.437 60.3475 177.78 60.4222 177.78 60.4222ZM28.7505 67.1982C29.4688 69.1947 29.9778 70.9556 29.9778 70.9556H24.1944C24.1944 70.9556 24.3368 70.6165 24.4848 70.2486C24.6329 69.8809 25.2765 68.2289 25.9152 66.5776C27.2085 63.233 27.1864 63.2816 27.3366 63.4483C27.396 63.5142 28.0322 65.2016 28.7505 67.1982Z" fill="#121212"></path> <path d="M0.900605 62.0651V61.2063V60.3475H9.06106V62.0312H6.12047L7.47836 66.1447C9.46887 72.2341 10.4092 74.9418 10.5473 74.9822C10.7457 75.04 14.8687 64.2808 15.2872 62.6128L15.4602 62.0251L12.9244 62.0312V61.1894V60.3475H19.9383V61.1863V62.0251L18.6829 62.0297C18.4106 62.0307 18.1883 62.1681 18.0838 62.4196C17.7807 63.1495 17.1257 64.8031 16.4282 66.5025C14.6788 70.7657 12.2288 76.4929 11.7571 77.4221L11.482 77.9639H8.81603L8.023 76.2361C6.99654 73.7798 4.92787 68.3858 3.7597 65.1192C2.63404 61.9715 2.70733 62.071 1.50896 62.0672L0.900605 62.0651Z" fill="#121212"></path> <path fill-rule="evenodd" clip-rule="evenodd" d="M72.2827 2.66032C73.9387 1.00662 75.5529 0.277746 77.9397 0.106263C79.5534 -0.00968058 80.8741 0.130883 82.5064 0.592512C84.6972 1.21217 86.6317 2.18424 92.231 5.47862C93.4782 6.2125 94.5418 6.81283 94.5947 6.81283C94.6476 6.81283 94.9668 6.45956 95.3041 6.02771C96.4161 4.60389 97.3219 4.14312 98.1586 4.57583C98.3972 4.69922 99.0138 5.26205 99.5292 5.82659L100.466 6.8532L102.658 5.56064C109.086 1.77042 110.987 0.860758 113.647 0.301221C114.966 0.0236711 117.466 0.0265341 118.656 0.306947C121.055 0.872352 123.319 2.66877 124.422 4.88043C125.185 6.41132 125.319 7.04472 125.318 9.10309C125.316 11.247 125.059 12.4577 124.253 14.1217C123.838 14.9773 123.823 15.0801 123.762 17.5286C123.692 20.3257 123.435 21.8349 122.94 22.3626C122.392 22.9459 119.971 23.571 118.227 23.5793L117.374 23.5835L114.824 26.8999C111.637 31.0437 102.538 42.8947 99.7147 46.5779C98.5498 48.0978 97.5439 49.3216 97.4792 49.2976C97.4147 49.2737 95.857 47.2894 94.0177 44.8883C92.1785 42.4871 90.3736 40.136 90.0071 39.6636C89.6406 39.1913 86.7477 35.4231 83.5783 31.2899C80.409 27.1567 77.7471 23.7276 77.6631 23.6698C77.579 23.612 77.1238 23.5629 76.6514 23.5606C75.5399 23.5553 73.3602 23.1035 72.617 22.7245C71.6273 22.2195 71.2732 20.8021 71.2165 17.119C71.1844 15.0413 71.1584 14.853 70.8053 14.157C70.0678 12.7031 69.6863 11.0524 69.6706 9.24623C69.6458 6.42063 70.386 4.55436 72.2827 2.66032ZM80.4617 2.44246C82.1464 2.73748 83.4973 3.22916 85.5068 4.27896C86.9016 5.00754 92.3631 8.12772 93.1562 8.64904C93.3018 8.74466 93.2225 9.00861 92.7984 9.8414L92.2537 10.911L90.2498 11.3097C87.2432 11.9081 83.8634 13.0715 81.07 14.4697L78.705 15.6535L77.535 15.178C76.1979 14.6345 73.9824 13.9699 73.5075 13.9699C73.2498 13.9699 73.1018 13.7801 72.7538 13.0037C72.0941 11.5316 71.9278 10.7459 71.9278 9.10309C71.9278 7.36049 72.1456 6.57966 73.0007 5.25661C73.9489 3.78956 75.6443 2.68995 77.4387 2.37791C78.4551 2.20127 79.1721 2.21659 80.4617 2.44246ZM123.096 8.06202C122.704 5.28939 120.586 3.02404 117.843 2.44261C116.923 2.24765 115.872 2.20385 115.085 2.32766C113.199 2.62439 111.282 3.30517 109.216 4.41265C107.622 5.26692 102.049 8.50232 101.853 8.68683C101.771 8.76427 101.937 9.22604 102.281 9.87676L102.843 10.94L104.133 11.1722C107.84 11.8395 112.184 13.3778 115.212 15.0957L116.27 15.6959L117.431 15.2026C118.702 14.6625 120.258 14.1784 121.199 14.03C121.906 13.9185 122.057 13.7281 122.57 12.3064C123.087 10.8752 123.276 9.3417 123.096 8.06202ZM98.4507 8.07262C99.7214 9.78644 100.672 11.4822 100.575 11.8608C100.482 12.2254 98.5433 14.3762 97.8869 14.8436L97.4516 15.1536L96.2438 13.9534C95.5796 13.2932 94.8724 12.5176 94.6722 12.2294C94.3181 11.7196 94.3148 11.6934 94.5487 11.2412C95.1946 9.99213 97.2903 6.967 97.5147 6.95955C97.5741 6.95755 97.9953 7.45854 98.4507 8.07262ZM121.152 20.7649C121.35 20.5667 121.453 19.8594 121.616 17.5842C121.704 16.3459 121.693 16.2604 121.439 16.2656C121.093 16.2726 118.969 16.971 117.964 17.4081L117.193 17.7433L117.289 19.0415C117.343 19.7555 117.435 20.5651 117.496 20.8406C117.602 21.325 117.627 21.341 118.242 21.3253C119.256 21.2991 120.943 20.9743 121.152 20.7649ZM93.5223 14.3966C94.4988 15.5633 95.8776 16.8069 96.6204 17.191C97.2793 17.5316 98.0134 17.4592 98.7609 16.9795C99.4254 16.5531 101.379 14.623 102.095 13.6862L102.476 13.1876L103.878 13.4277C106.816 13.9309 110.38 15.1551 113.295 16.6626L114.87 17.4768L115.034 19.1458C115.125 20.0639 115.27 21.1474 115.357 21.5535L115.515 22.2921L114.847 23.1767C114.48 23.6632 114.056 24.1991 113.906 24.3676L113.633 24.6739L112.26 23.8106C110.416 22.6522 108.34 21.6776 106.264 20.9958C98.4555 18.4317 89.6483 19.4835 82.7701 23.8018C82.0847 24.2322 81.4728 24.5953 81.4105 24.6091C81.3481 24.6227 80.8885 24.0923 80.3892 23.4306L79.4814 22.2275L79.6841 21.4514C79.7955 21.0247 79.9318 19.9586 79.9867 19.0824L80.0868 17.4893L81.8155 16.6087C84.6077 15.186 86.9806 14.3402 90.2498 13.602L90.4163 13.5643C91.5449 13.3089 92.0451 13.1957 92.4389 13.3515C92.7524 13.4754 92.9984 13.7699 93.4403 14.2986L93.5223 14.3966ZM110.898 25.6199C107.763 23.6774 104.284 22.4819 100.345 21.993C94.8475 21.311 88.4433 22.8055 83.7061 25.876L82.7449 26.499L83.4681 27.4272C83.8658 27.9378 84.2775 28.4757 84.3829 28.6228C84.5651 28.8768 84.6264 28.8576 85.6229 28.2366C91.1806 24.7727 98.2296 23.9395 104.529 26.0018C106.27 26.5717 108.607 27.6633 109.709 28.4216C110.057 28.6608 110.37 28.8565 110.405 28.8565C110.484 28.8565 112.222 26.6175 112.222 26.5152C112.222 26.4741 111.626 26.0713 110.898 25.6199ZM100.556 27.3548C102.31 27.6176 103.742 28.0227 105.387 28.7214C106.842 29.3396 108.794 30.4269 108.888 30.6715C108.964 30.8696 97.7438 45.5324 97.516 45.5324C97.375 45.5324 86.0297 30.893 86.0278 30.7089C86.0274 30.6648 86.5532 30.316 87.196 29.9335C89.3244 28.6674 92.1772 27.6679 94.7312 27.2933C96.0795 27.0954 99.0326 27.1268 100.556 27.3548ZM77.0712 17.4157C76.69 17.2472 75.808 16.9181 75.1111 16.6847C74.4141 16.4512 73.7411 16.2601 73.6155 16.2601C73.4141 16.2601 73.3978 16.4665 73.4768 18.0136C73.5261 18.9781 73.6082 20.0053 73.6592 20.2964C73.7502 20.8153 73.7707 20.8299 74.7007 21.039C75.2226 21.1564 76.0426 21.2958 76.5232 21.3489C76.9272 21.3935 77.1734 21.4266 77.3304 21.3236C77.5833 21.1577 77.6045 20.6386 77.6807 19.2456L77.764 17.7222L77.0712 17.4157Z" fill="#121212"></path> </svg> 