<?xml version="1.0" encoding="UTF-8"?> <svg xmlns="http://www.w3.org/2000/svg" width="208" height="74" viewBox="0 0 208 74" fill="none"> <path d="M16.8169 28.0465C39.5332 33.375 64.9957 39.749 89.9143 43.3394C98.3276 44.5516 106.616 46.1635 114.526 45.6511C125.855 45.6511 143.187 37.9744 152.61 21.8767C155.206 17.4418 158.97 0.749342 142.516 2.74066C142.516 2.74066 136.856 3.15989 133.199 9.72947C130.708 6.06301 123.797 -0.792587 115.662 1.53181C107.527 3.85621 109.644 13.8456 111.719 18.5497C117.634 29.3416 134.444 54.4534 191.413 50.7177" stroke="#BA3330" stroke-linecap="round"></path> <path fill-rule="evenodd" clip-rule="evenodd" d="M5.38459 58.5607C2.52613 59.3902 1.24521 61.4101 0.698114 63.2365C-0.196695 66.2232 0.698411 69.4319 2.96836 71.3749C4.46397 72.6551 5.90082 73.1141 8.38587 73.1055C10.6155 73.0978 12.2197 72.4617 13.6722 71.0091C17.6876 66.9937 15.9909 60.0171 10.6098 58.4192C9.3436 58.0431 7.37031 57.8789 5.38459 58.5607ZM117.241 58.5435C115.094 59.3086 113.299 61.1861 112.661 63.3323C112.199 64.8884 112.28 66.7742 112.666 68.0885C113.282 70.1825 115.313 72.2356 117.328 72.7996C118.592 73.1537 120.539 73.1622 122.151 72.8988C123.559 72.6689 124.733 71.8021 125.768 70.8209L126.301 70.3154V64.4879H119.906V65.8331V67.1783H123.169V69.5328V69.5328C121.779 70.0533 120.289 70.5407 118.878 70.0786C117.817 69.7315 116.829 69.0891 116.355 68.311C115.495 66.9009 115.529 64.3366 116.426 62.9944C116.757 62.4986 117.228 62.0557 117.761 61.7098C119.136 60.8179 120.876 61.185 122.447 61.6508L123.682 62.0169C124.179 61.4517 125.471 59.9557 125.471 59.9557C122.886 57.8501 119.358 57.7893 117.241 58.5435ZM19.6256 65.6794V73.112H24.8176H30.0096V69.9968H22.7408V58.2465H19.6256V65.6794ZM31.2999 59.3902C31.6874 60.0023 32.9575 62.0103 34.1223 63.853L36.2401 67.2032V70.173V73.1432H39.5036V67.2032L42.248 62.6941C43.6759 60.4725 44.9439 58.3916 44.9439 58.288C44.9439 58.288 42.3702 58.2854 41.4321 58.288L40.3237 60.137C39.7143 61.154 38.9102 62.4862 38.537 63.0973L37.8585 64.2087L36.0908 61.243L34.3235 58.2777H30.5956L31.2999 59.3902ZM47.8109 73.1432H51.008L51.0901 63.5109L55.1061 69.397L59.2333 63.5293V73.1432H62.5764V58.288H59.0905L55.1061 64.2087L51.3221 58.288L47.8109 58.2777V73.1432ZM66.7988 58.3302V73.1432H70.0624L70.0885 68.6617H71.396C74.7231 68.6617 77.2283 67.4373 78.073 65.3981C78.6097 64.1022 78.3207 61.5359 77.5098 60.3969C76.3287 58.7384 75.4081 58.4515 70.8783 58.3302H66.7988ZM81.6332 65.6948V73.112H83.265H84.8968V65.6948V58.2777H83.265H81.6332V65.6948ZM91.1963 65.4738C89.5209 69.4301 88.1111 72.9895 88.1141 73.112C88.1141 73.112 90.3437 73.112 91.1717 73.112L92.716 69.5328H98.8517L100.241 73.0527H103.545L103.272 72.3205C103.101 71.8686 101.685 68.5243 100.126 64.8884L97.2909 58.2777L95.7668 58.2791L94.2424 58.2806L91.1963 65.4738ZM146.974 73.1432H150.168V68.365H151.494C152.814 68.365 152.827 68.3754 154.333 70.6074C155.165 71.8407 156.104 73.1894 156.104 73.1894H159.737L157.901 70.3911L156.104 67.8182L157.149 67.1729C158.509 66.3324 159.178 65.0151 159.188 63.1608C159.198 61.1736 158.388 59.8011 156.7 58.9452C155.516 58.3453 154.952 58.2777 151.138 58.2777L146.974 58.2794V73.1432ZM162.926 65.7334V73.1894H166.743C171.073 73.0233 172.266 72.5626 174.09 70.9616C177.448 68.0132 177.042 62.0675 173.32 59.7047C171.43 58.5046 170.413 58.2812 166.479 58.2794L162.926 58.2777V65.7334ZM180.133 65.6948V73.112H191.111V70.1451H183.249V67.0299H190.221V65.5465V64.0631H183.249V61.2445H191.111V58.2777H180.133V65.6948ZM194.805 58.2471C194.805 58.2471 194.696 62.1663 194.74 65.9977L194.805 73.1894H198.046C198.046 70.5908 198.046 64.0631 198.046 64.0631C198.101 64.2164 205.203 73.1894 205.203 73.1894H207.874V58.2471L204.61 58.2777V67.0299L197.79 58.2777L194.805 58.2471ZM10.6612 61.7925C13.1673 63.5771 13.099 67.993 10.5407 69.574C8.31052 70.9521 5.46885 70.1371 4.27201 67.7761C3.44455 66.1437 3.68994 64.5189 4.21297 63.4385C5.35165 61.0864 8.53006 60.2749 10.6612 61.7925ZM74.5127 61.8379C74.8753 62.2005 75.1061 62.8268 75.1061 63.448C75.1061 64.962 74.0285 65.6948 71.8025 65.6948H70.0624V63.4697V61.2445H71.9909C73.5239 61.2445 74.041 61.3662 74.5127 61.8379ZM154.62 61.4385C155.371 61.6784 155.816 62.4751 155.84 63.2626C155.856 63.7467 155.76 64.2836 155.373 64.6698C154.729 65.3145 154.388 65.3981 152.406 65.3981H150.168V63.3213V61.2445H152.52C153.598 61.2445 154.204 61.3054 154.62 61.4385ZM171.131 61.8667C172.585 62.7653 173.103 63.9512 172.952 66.0351C172.753 68.7902 171.065 70.1451 167.83 70.1451H166.189V65.6948V61.2445H168.157C169.637 61.2445 170.374 61.3988 171.131 61.8667ZM97.6543 66.7742C97.6543 66.7742 94.9406 66.7742 93.8624 66.7742C94.7901 64.4357 95.7715 62.2298 95.7715 62.2298C95.8081 62.2661 96.5367 64.0463 97.1177 65.4657C97.184 65.6277 97.2484 65.785 97.3096 65.9345C97.4443 66.2634 97.5636 66.5544 97.6543 66.7742Z" fill="#2B2A28"></path> <path fill-rule="evenodd" clip-rule="evenodd" d="M91.1963 65.4738C89.5209 69.4301 88.1111 72.9895 88.1141 73.112H91.1717L92.716 69.5328H98.8517L100.241 73.0527H103.545L103.272 72.3205C103.101 71.8686 101.685 68.5243 100.126 64.8884L97.2909 58.2777L95.7668 58.2791L94.2424 58.2806L91.1963 65.4738ZM93.8624 66.7742H97.6543C97.5636 66.5544 97.4443 66.2634 97.3096 65.9345L97.1177 65.4657C96.5367 64.0463 95.8081 62.2661 95.7715 62.2298C95.7715 62.2298 94.7901 64.4357 93.8624 66.7742Z" fill="#2B2A28"></path> <path fill-rule="evenodd" clip-rule="evenodd" d="M131.504 65.4738C129.828 69.4301 128.419 72.9895 128.422 73.112H131.479L133.023 69.5328H139.159L140.548 73.0527H143.852L143.58 72.3205C143.408 71.8686 141.992 68.5243 140.433 64.8884L137.598 58.2777L136.074 58.2791L134.55 58.2806L131.504 65.4738ZM134.17 66.7742H137.962C137.871 66.5544 137.752 66.2634 137.617 65.9345L137.425 65.4657C136.844 64.0463 136.116 62.2661 136.079 62.2298C136.079 62.2298 135.098 64.4357 134.17 66.7742Z" fill="#2B2A28"></path> </svg> 