<?xml version="1.0" encoding="UTF-8"?> <svg xmlns="http://www.w3.org/2000/svg" width="448" height="95" viewBox="0 0 448 95" fill="none"> <path d="M62.992 51.552C62.992 57.44 59.536 61.536 54.8 61.536C50 61.536 46.608 57.44 46.608 51.552V32.992H38.608V51.552C38.608 57.44 35.216 61.536 30.416 61.536C25.68 61.536 22.224 57.44 22.224 51.552V32.992H14.224V50.336C14.224 61.152 20.88 68.704 30.416 68.704C35.664 68.704 39.888 66.4 42.576 62.432C45.264 66.4 49.488 68.704 54.8 68.704C64.336 68.704 70.992 61.152 70.992 50.336V32.992H62.992V51.552ZM247.885 46.56H230.285V32.928H222.349V68H230.285V53.6H247.885V68H255.821V32.928H247.885V46.56ZM281.501 68.704C292.637 68.704 300.637 60.96 300.637 50.4C300.637 39.904 292.637 32.224 281.501 32.224C270.493 32.224 262.493 39.904 262.493 50.464C262.493 61.024 270.429 68.704 281.501 68.704ZM281.565 61.536C275.165 61.536 270.493 57.12 270.493 50.4C270.493 43.744 275.165 39.456 281.501 39.456C287.965 39.456 292.573 43.744 292.573 50.464C292.573 57.12 287.965 61.536 281.565 61.536ZM301.396 32.992V40.096H313.172V68H321.108V40.096H332.948V32.992H301.396ZM371.126 53.6C371.382 51.488 371.51 50.272 371.51 48.864C371.51 39.328 364.598 32.352 354.614 32.352C343.542 32.352 336.118 39.968 336.118 50.464C336.118 61.024 344.054 68.64 355.126 68.64C361.398 68.64 366.07 66.208 369.526 62.56L364.47 58.016C362.102 60.576 359.414 61.536 355.574 61.536C349.686 61.536 345.334 58.592 344.31 53.6H371.126ZM354.55 39.392C359.414 39.392 362.806 41.888 363.702 47.008H344.438C345.462 42.336 349.238 39.392 354.55 39.392ZM402.614 68V60.832H385.846V32.928H377.974V68H402.614ZM420.343 68.64C429.559 68.64 435.639 64.672 435.639 57.632C435.639 52.064 432.631 48.608 421.751 46.304C415.799 45.088 414.199 44.256 414.199 42.336C414.199 40.416 415.863 39.52 419.062 39.52C423.415 39.52 427.895 40.672 431.223 42.592L434.423 35.936C430.967 33.76 424.247 32.288 419.575 32.288C411.062 32.288 406.135 36.128 406.135 42.976C406.135 48.672 409.271 51.872 419.51 53.6C425.783 54.688 427.703 55.584 427.703 57.952C427.703 60.576 425.015 61.408 420.663 61.408C416.695 61.408 412.599 60.384 408.247 57.888L404.983 64.416C408.823 66.656 414.519 68.64 420.343 68.64Z" fill="#171717"></path> <path d="M96.5635 68.704C107.7 68.704 115.7 60.96 115.7 50.4C115.7 39.904 107.7 32.224 96.5635 32.224C85.5555 32.224 77.5555 39.904 77.5555 50.464C77.5555 61.024 85.4915 68.704 96.5635 68.704ZM96.6275 61.536C90.2275 61.536 85.5555 57.12 85.5555 50.4C85.5555 43.744 90.2275 39.456 96.5635 39.456C103.028 39.456 107.636 43.744 107.636 50.464C107.636 57.12 103.028 61.536 96.6275 61.536ZM130.223 49.44C130.223 43.552 133.999 39.456 139.375 39.456C144.815 39.456 148.591 43.552 148.591 49.44V68H156.527V50.592C156.527 39.776 149.487 32.224 139.375 32.224C129.327 32.224 122.286 39.776 122.286 50.592V68H130.223V49.44ZM198.126 53.6C198.382 51.488 198.51 50.272 198.51 48.864C198.51 39.328 191.598 32.352 181.614 32.352C170.542 32.352 163.118 39.968 163.118 50.464C163.118 61.024 171.054 68.64 182.126 68.64C188.398 68.64 193.07 66.208 196.526 62.56L191.47 58.016C189.102 60.576 186.414 61.536 182.574 61.536C176.686 61.536 172.334 58.592 171.31 53.6H198.126ZM181.55 39.392C186.414 39.392 189.806 41.888 190.702 47.008H171.438C172.462 42.336 176.238 39.392 181.55 39.392Z" fill="#D62C2C"></path> </svg> 