<?xml version="1.0" encoding="UTF-8"?> <svg xmlns="http://www.w3.org/2000/svg" width="196" height="62" viewBox="0 0 196 62" fill="none"> <path fill-rule="evenodd" clip-rule="evenodd" d="M71.9343 46.4662C68.2484 47.1251 65.6864 49.5701 65.0172 53.0677C64.3705 56.4476 65.7049 59.5564 68.3345 60.7966C70.5897 61.8602 72.8377 61.9431 76.0905 61.0824C77.666 60.6655 77.6111 60.7266 77.3659 59.6643C77.2421 59.1277 77.1929 59.0588 76.9778 59.1204C74.9135 59.7111 74.2749 59.8265 73.029 59.8338C70.9479 59.8458 69.684 59.2968 68.6383 57.9261C67.9565 57.0325 67.6607 55.9476 67.6628 54.3486C67.6654 52.321 68.2338 50.8082 69.4682 49.5437C70.7867 48.1928 73.0972 47.6532 74.7842 48.3021C75.1301 48.4352 75.1323 48.442 75.3964 50.1685L75.5426 51.124L76.4206 51.099C76.9036 51.0853 77.3179 51.055 77.3412 51.0318C77.3907 50.9821 77.1361 46.8455 77.0794 46.7802C77.0583 46.7559 76.7295 46.6618 76.3487 46.571C75.3706 46.3382 72.9699 46.2811 71.9343 46.4662ZM173.111 46.4819C170.936 46.864 169.68 47.4935 168.271 48.9075C166.66 50.5253 166.01 52.1231 166.009 54.468C166.008 58.4912 168.493 61.0899 172.813 61.5827C174.814 61.8109 177.688 61.5418 178.67 61.0343L179.023 60.8514V58.5351V56.0888L180.456 56.0816V54.6471H173.435V56.0816C173.435 56.0816 175.288 56.0802 176.515 56.0816V58.0027C176.515 60.1084 176.577 60.0279 174.907 60.1114C171.913 60.261 169.741 58.8016 169.041 56.1692C168.411 53.7981 168.98 51.2184 170.48 49.6455C171.56 48.5136 172.878 47.9591 174.488 47.9591C175.298 47.9591 176.302 48.1917 176.663 48.4631C176.805 48.5698 176.926 49.0025 177.064 49.8998L177.262 51.1837L178.945 51.1334C178.945 51.1334 179.075 50.3917 178.945 48.2622L178.866 46.9756L178.496 46.821C177.436 46.378 174.688 46.2051 173.111 46.4819ZM53.4865 47.1984C53.1239 47.9982 50.3878 54.4839 48.9335 57.9912L48.166 59.8424H46.6947V61.3352H49.5461H52.5468V59.9021H51.4639C50.4865 59.9021 50.3875 59.8816 50.4484 59.6931C50.4854 59.5782 50.72 58.9466 50.9695 58.2898L51.4233 57.0955L54.4202 57.0636L57.417 57.0317L57.9079 58.2985C58.1779 58.9951 58.3989 59.641 58.3989 59.7337C58.3989 59.8636 58.1944 59.9021 57.5031 59.9021H56.6074V61.3352H59.5195H62.5789V59.9021H61.167L60.2667 57.603C59.7716 56.3386 58.593 53.3155 57.6476 50.8851L55.9289 46.4662L54.8894 46.4315L53.8498 46.397L53.4865 47.1984ZM86.3754 46.6169L81.8072 46.6481V47.3581V48.068L82.673 48.1031L83.5389 48.1382V53.9903V59.8424H81.8072V60.6239V61.3352H87.4157H93.0244L93.1445 60.8874C93.4006 59.9323 93.8524 57.7017 93.8051 57.6253C93.7779 57.5811 93.5259 57.5083 93.2452 57.4638C92.9645 57.4191 92.62 57.3539 92.4793 57.3189C92.2512 57.2621 92.1754 57.3797 91.7768 58.4085C91.4259 59.3139 91.2661 59.5859 91.0331 59.6746C90.5673 59.8517 86.524 59.9075 86.1341 59.7534V57.1273L86.1664 54.5874L87.9121 54.5545C90.1087 54.513 90.2282 54.5534 90.3249 55.3702C90.3655 55.7129 90.4055 56.0746 90.424 56.0924H92.0781V51.542H90.4394L90.3662 52.1598C90.326 52.4997 90.2356 52.8352 90.1654 52.9054C90.0853 52.9854 89.3154 53.0334 88.1021 53.0339L86.1664 53.0348L86.134 50.6136C86.1059 48.5103 86.134 48.1099 86.134 48.1099C86.134 48.1099 87.4451 48.0977 88.6316 48.157C90.4341 48.2469 90.8129 48.2976 90.9358 48.4657C91.0166 48.5763 91.1504 49.0448 91.2329 49.5069L91.4364 50.4546L93.1769 50.326L92.8895 46.6628L91.9165 46.6242C91.3814 46.6029 88.8879 46.5997 86.3754 46.6169ZM0.355835 47.3564V48.0676L1.16199 48.1029L1.96814 48.1382L1.99907 54.0201L2.03013 59.9021H1.19292H0.355835V60.6186V61.3352H3.81931H7.28278V60.6226V59.9099L5.93919 59.8762L4.5956 59.8424V57.8718V55.9012L5.8821 55.8724C9.03781 55.8017 11.0255 54.7889 11.9701 52.7704C12.3002 52.0649 12.3485 51.8338 12.3513 50.9461C12.3539 50.0948 12.3034 49.82 12.0403 49.2551C11.4318 47.9488 10.2971 47.1576 8.55399 46.824C7.85234 46.6898 6.71668 46.6453 3.98794 46.6453H0.355835V47.3564ZM32.7214 47.3619V48.0785H33.6182H34.5151L34.4841 53.9604L34.4531 59.8424H32.7811V60.6532V61.3447L43.8081 61.2759C43.8081 61.2759 44.6136 58.1673 44.724 57.5142L44.7997 57.0658L43.1227 56.8713C43.1227 56.8713 42.8216 57.5588 42.5649 58.2712C42.2604 59.1166 42.0156 59.6107 41.8603 59.6939C41.5071 59.8828 37.6066 59.9682 37.2812 59.7941C37.0217 59.6552 37.0209 59.6421 37.0209 55.6771C37.0209 53.4894 37.0561 50.8846 37.0992 49.8889L37.1776 48.0785H38.2338H39.29V47.3619V46.6453H36.0057H32.7214V47.3619ZM103.066 47.3477V48.0685H104.917V53.9903V59.9618H103.054V61.3352H107.161C110.862 61.3352 111.36 61.3118 112.192 61.099C113.889 60.6649 114.92 59.9361 115.498 58.7615C115.811 58.1267 115.88 57.8433 115.882 57.1834C115.883 56.7073 115.807 56.199 115.694 55.9382C115.245 54.8947 113.83 53.8363 112.607 53.6298C112.352 53.5866 112.143 53.5157 112.143 53.4722C112.143 53.4287 112.494 53.2121 112.922 52.9907C115.83 51.4867 115.593 48.0017 112.513 46.9796C111.772 46.7337 111.463 46.7152 107.395 46.6724L103.066 46.6271V47.3477ZM119.666 47.3619V48.0785H121.398V53.9903V59.8424H119.726V61.3352C119.776 61.3352 124.235 61.4132 125.877 61.4132V59.8424H123.906L123.949 57.6329C123.972 56.4177 124.008 55.4053 124.029 55.3832C124.159 55.2439 126.002 55.3643 126.438 55.5405C127.08 55.7998 127.279 56.0717 128.624 58.5286C130.103 61.2307 130.478 61.3352 130.478 61.3352C130.478 61.3352 133.17 61.3352 134.118 61.3352V60.0066H133.64C133.377 59.9983 133.108 59.9783 133.043 59.9618L132.679 59.917C132.303 59.8941 131.989 59.4779 130.953 57.6293C129.999 55.9273 129.179 54.8453 128.738 54.7052C128.374 54.5898 128.454 54.4926 129.192 54.1486C131.752 52.9559 132.519 49.9336 130.719 48.1324C129.418 46.83 128.511 46.6453 123.418 46.6453H119.666V47.3619ZM137.103 47.3571V48.0688L138.089 48.1036L139.074 48.1382V53.9903V59.8424L138.161 59.877C137.146 59.9156 137.108 59.9518 137.105 60.8874L137.103 61.3352H140.388H143.672V60.6186V59.9021H142.657H141.642V54.0628C141.642 48.8482 141.662 48.2157 141.831 48.151C141.934 48.1111 142.391 48.0785 142.846 48.0785H143.672V47.3619V46.6453H140.388H137.103V47.3571ZM148.245 46.6271V48.2306H150.004L149.973 54.0365L149.942 59.8424H148.091V61.3487L152.48 61.3063C157.388 61.259 157.511 61.2422 159.273 60.38C161.57 59.2558 162.952 56.9757 163.104 54.061C163.154 53.1039 163.122 52.607 162.973 52.0197C162.47 50.0312 161.239 48.4992 159.437 47.6193C157.756 46.7984 157.32 46.7394 152.497 46.6797L148.245 46.6271ZM110.706 48.2804C111.826 48.6553 112.409 49.4024 112.409 50.4636C112.409 51.4166 111.862 52.1409 110.769 52.6353C110.294 52.8502 109.897 52.9152 108.828 52.9531L107.485 53.0009V50.5472V48.0937L107.873 48.0391C108.512 47.9494 110.128 48.087 110.706 48.2804ZM7.95374 48.4247C8.67725 48.7405 9.22639 49.2731 9.49677 49.9212C9.7551 50.5407 9.75128 51.8152 9.48901 52.4706C9.2351 53.1052 8.40291 53.8511 7.66436 54.1062C6.96856 54.3467 5.29522 54.473 4.89418 54.3155L4.5956 54.1982L4.6294 51.1235L4.66332 48.0488L6.00285 48.1033C7.04129 48.1456 7.47996 48.2179 7.95374 48.4247ZM127.368 48.4214C128.082 48.7399 128.455 49.0695 128.739 49.6311C129.207 50.5593 129.14 51.5268 128.545 52.3984C127.908 53.3317 126.712 53.8111 125.019 53.8111H123.966V51.0245C123.966 49.4917 124.006 48.1962 124.056 48.1455C124.105 48.0949 124.736 48.0763 125.459 48.1044C126.48 48.1441 126.905 48.2145 127.368 48.4214ZM155.813 48.2654C156.311 48.3682 157.011 48.5818 157.369 48.7401C158.16 49.0899 159.399 50.294 159.776 51.0788C160.658 52.9194 160.542 55.6811 159.506 57.4483C159.169 58.0226 158.207 58.9546 157.657 59.2391C156.481 59.8475 153.393 60.1492 152.775 59.7161V59.7161C152.609 59.5996 152.51 59.4093 152.51 59.2062V53.884C152.51 51.4569 152.464 49.3916 152.518 48.5539C152.535 48.2839 152.715 48.1028 152.985 48.0872C153.687 48.0469 155.122 48.1227 155.813 48.2654ZM55.8041 52.4675L56.9301 55.6026H54.4451H51.9603L52.121 55.1547C52.247 54.8035 53.3333 52.0048 54.3535 49.4026C54.4205 49.2317 54.5096 49.1589 54.5723 49.2235C54.6306 49.2834 55.1849 50.7433 55.8041 52.4675ZM109.933 54.5321C111.616 54.7721 112.561 55.3032 112.991 56.251C113.405 57.1613 113.181 58.3909 112.485 59.0303C111.601 59.8428 108.933 60.2509 107.843 59.7402L107.544 59.6005L107.512 57.1025C107.487 55.184 107.515 54.5823 107.631 54.5082C107.838 54.3769 108.922 54.3881 109.933 54.5321Z" fill="#121212"></path> <path fill-rule="evenodd" clip-rule="evenodd" d="M20.2797 47.1984C19.9171 47.9982 17.1811 54.4839 15.7268 57.9912L14.9592 59.8424H13.4879V61.3352H16.3393H19.34V59.9021H18.2571C17.2797 59.9021 17.1807 59.8816 17.2416 59.6931C17.2787 59.5782 17.5132 58.9466 17.7627 58.2898L18.2165 57.0955L21.2134 57.0636L24.2103 57.0317L24.7011 58.2985C24.9712 58.9951 25.1921 59.641 25.1921 59.7337C25.1921 59.8636 24.9876 59.9021 24.2964 59.9021H23.4006V61.3352H26.3127H29.3721V59.9021H27.9602L27.06 57.603C26.5648 56.3386 25.3863 53.3155 24.4409 50.8851L22.7222 46.4662L21.6826 46.4316L20.643 46.397L20.2797 47.1984ZM23.7233 55.6026L22.5974 52.4675C21.9781 50.7433 21.4238 49.2834 21.3656 49.2235C21.3029 49.1589 21.2138 49.2317 21.1468 49.4026C20.1266 52.0048 19.0402 54.8035 18.9142 55.1547L18.7535 55.6026H21.2384H23.7233Z" fill="#121212"></path> <path d="M183.692 46.6481L188.26 46.6169C190.772 46.5997 193.266 46.6029 193.801 46.6242L194.774 46.6628L195.061 50.326L193.321 50.4546L193.117 49.5069C193.035 49.0448 192.901 48.5763 192.82 48.4657C192.697 48.2976 192.318 48.2469 190.516 48.157C189.329 48.0977 188.018 48.1099 188.018 48.1099C188.018 48.1099 187.99 48.5103 188.018 50.6136L188.051 53.0348L189.986 53.0339C191.2 53.0334 191.97 52.9854 192.05 52.9054C192.12 52.8351 192.21 52.4997 192.251 52.1598L192.324 51.542H193.963V56.0924H192.308C192.29 56.0746 192.25 55.7129 192.209 55.3702C192.113 54.5534 191.993 54.513 189.796 54.5545L188.051 54.5874L188.019 57.1273V59.7534C188.408 59.9075 192.452 59.8517 192.918 59.6745C193.151 59.5859 193.31 59.3139 193.661 58.4085C194.06 57.3797 194.136 57.2621 194.364 57.3189C194.504 57.3539 194.849 57.4191 195.13 57.4638C195.41 57.5083 195.662 57.5811 195.69 57.6252C195.737 57.7017 195.285 59.9323 195.029 60.8874L194.909 61.3352H189.3H183.692V60.6239V59.8424H185.423V53.9903V48.1382L184.557 48.1031L183.692 48.068V47.3581V46.6481Z" fill="#121212"></path> <path fill-rule="evenodd" clip-rule="evenodd" d="M85.7484 2.44641V4.58635L84.8228 4.88803C83.9182 5.18291 78.5479 6.88741 78.0153 7.04864C77.7479 7.12962 77.7465 7.12353 77.7465 5.80824V4.48651H75.0594H72.3722V18.8181V33.1497H75.0594H77.7465V31.836C77.7465 31.1134 77.7887 30.5223 77.8402 30.5223C77.8917 30.5223 79.6787 31.0764 81.8112 31.7537L85.6886 32.985L85.7213 35.1595L85.7537 37.3338L88.7667 37.302L91.7796 37.2701L91.8123 35.2696L91.845 33.2692H98.2914H104.738V35.2995V37.3298H107.721H110.704L110.736 35.1652L110.769 33.0007L114.65 31.7623C116.785 31.0813 118.572 30.5237 118.621 30.5232C118.671 30.5226 118.711 31.1134 118.711 31.836V33.1497H121.458H124.205V18.8181V4.48651H121.458H118.711V5.80824C118.711 7.01282 118.693 7.12412 118.502 7.06345C118.387 7.02691 116.761 6.51097 114.889 5.91692C113.017 5.32288 111.311 4.78079 111.097 4.71211L110.709 4.58743V2.44688V0.306458H107.726H104.743L104.711 2.30691L104.678 4.30737L98.2587 4.3383L91.8393 4.36911V2.33784V0.306458H88.7938H85.7484V2.44641ZM75.8357 17.8627V12.0703V6.27796H75.0793C74.6632 6.27796 74.287 6.31379 74.2433 6.35762C74.1995 6.40133 74.1636 9.00789 74.1636 12.15V17.8627H74.9997H75.8357ZM75.8357 25.5062V31.2389H74.9997H74.1636V25.5062V19.7736H74.9997H75.8357V25.5062ZM85.296 15.1349C84.5361 14.1237 83.4406 13.3878 82.2849 13.1123C80.952 12.7948 79.5019 12.8691 78.3721 13.3129L77.8063 13.5351L77.7752 18.7951L77.744 24.055L78.4321 24.3178C79.2993 24.6491 81.1372 24.7671 82.0618 24.5509C83.4063 24.2365 84.6258 23.4371 85.4083 22.357L85.7484 21.8875V18.8121V15.7369L85.296 15.1349ZM85.7165 30.9522C85.6966 30.972 84.4193 30.5864 82.878 30.0952C81.3366 29.6041 79.5514 29.0382 78.911 28.8378L77.7465 28.4734V27.2756C77.7465 26.1831 77.7649 26.0851 77.9555 26.16C78.9885 26.5661 81.1263 26.6813 82.464 26.403C83.3593 26.2167 85.1119 25.4019 85.4706 25.0053C85.6824 24.7712 85.6896 24.8527 85.7205 27.8403C85.7381 29.5321 85.7363 30.9325 85.7165 30.9522ZM85.7484 12.7563V9.69629C85.7484 7.32142 85.7149 6.639 85.5991 6.64831C85.517 6.65488 83.73 7.21394 81.628 7.89063L77.8063 9.12111L77.7723 10.3165L77.7384 11.512L78.3098 11.3223C78.7244 11.1847 79.3725 11.1306 80.6726 11.1253C82.2555 11.1187 82.5544 11.1501 83.2403 11.3951C83.9617 11.6527 84.8405 12.1119 85.4796 12.5656L85.7484 12.7563ZM100.178 12.7893C101.707 13.1497 103.055 14.0341 104.132 15.383L104.73 16.1309L104.734 18.7616C104.737 21.0382 104.711 21.4322 104.536 21.6877C103.597 23.0642 102.089 24.2399 100.702 24.6778C99.6031 25.0247 97.6761 25.1123 96.5281 24.8677C95.0413 24.551 94.1885 24.0613 92.944 22.8101L91.8393 21.6991V18.8548V16.0106L92.4415 15.2752C93.4702 14.0191 94.7087 13.2158 96.2582 12.7998C97.1235 12.5675 99.2137 12.5619 100.178 12.7893ZM89.9284 17.8627V10.04V2.21734H88.7938H87.6592V10.04V17.8627H88.7938H89.9284ZM89.9284 27.5962V35.4189H88.7938H87.6592V27.5962V19.7736H88.7938H89.9284V27.5962ZM104.676 13.0855C104.71 13.0855 104.738 11.5538 104.738 9.68172V6.27796H98.2885H91.8393V9.69103V13.1041L92.3059 12.7066C93.9949 11.2678 96.2072 10.5988 98.826 10.7351C100.937 10.845 102.567 11.4175 103.931 12.5286C104.307 12.8349 104.643 13.0855 104.676 13.0855ZM94.0316 26.0049C95.2815 26.6367 96.3534 26.8534 98.2288 26.8534C100.685 26.8534 102.2 26.3907 103.862 25.1327C104.285 24.8127 104.655 24.5508 104.684 24.5508C104.714 24.5508 104.738 26.0825 104.738 27.9545V31.3583H98.2885H91.8393V27.9548V24.5512L92.5857 25.1013C92.9963 25.4039 93.6469 25.8105 94.0316 26.0049ZM108.798 35.4189V27.5962V19.7736H107.664H106.529V27.5962V35.4189H107.664H108.798ZM108.798 10.04V17.8627H107.664H106.529V10.04V2.21734H107.664H108.798V10.04ZM118.054 26.289C116.513 26.7611 114.07 26.5968 112.535 25.9179C112.169 25.7563 111.609 25.4363 111.29 25.207L110.709 24.79V27.903V31.0161L110.978 30.9322C111.784 30.6803 117.662 28.8144 118.144 28.6576L118.711 28.4727V27.2881C118.711 26.6365 118.698 26.104 118.681 26.1047C118.665 26.1054 118.383 26.1883 118.054 26.289ZM117.875 13.2487L118.651 13.5035L118.682 18.7792L118.714 24.055L118.026 24.3185C117.059 24.6887 115.193 24.7755 114.229 24.4952C112.82 24.0855 111.689 23.3026 111.049 22.2927L110.709 21.7571V18.7864V15.8156L111.055 15.3137C112.213 13.6292 114.065 12.7842 116.263 12.9361C116.723 12.968 117.448 13.1085 117.875 13.2487ZM118.651 9.10583L114.77 7.87223C112.635 7.19375 110.848 6.63804 110.799 6.63745C110.749 6.63673 110.709 8.00671 110.709 9.68172C110.709 11.3567 110.74 12.7272 110.777 12.7272C110.814 12.7272 111.016 12.5988 111.225 12.442C111.713 12.0756 112.623 11.6265 113.456 11.3404C114.326 11.0419 117.267 11.0308 118.148 11.3227L118.719 11.512L118.685 10.3088L118.651 9.10583ZM122.294 12.0703V17.8627H121.458H120.622V12.15C120.622 9.00789 120.658 6.40133 120.702 6.35762C120.745 6.31379 121.122 6.27796 121.538 6.27796H122.294V12.0703ZM122.294 31.2389V25.5062V19.7736H121.458H120.622V25.5062V31.2389H121.458H122.294Z" fill="#121212"></path> </svg> 